<svg id="visual" viewBox="0 0 960 540" width="960" height="540" xmlns="http://www.w3.org/2000/svg" xmlns:xlink="http://www.w3.org/1999/xlink" version="1.1"><path d="M774 540L775.7 534C777.3 528 780.7 516 783.3 504C786 492 788 480 789.5 468C791 456 792 444 789.7 432C787.3 420 781.7 408 781.2 396C780.7 384 785.3 372 781.5 360C777.7 348 765.3 336 759.7 324C754 312 755 300 761.7 288C768.3 276 780.7 264 782.7 252C784.7 240 776.3 228 778.5 216C780.7 204 793.3 192 799 180C804.7 168 803.3 156 796.5 144C789.7 132 777.3 120 766.3 108C755.3 96 745.7 84 750.8 72C756 60 776 48 779 36C782 24 768 12 761 6L754 0L960 0L960 6C960 12 960 24 960 36C960 48 960 60 960 72C960 84 960 96 960 108C960 120 960 132 960 144C960 156 960 168 960 180C960 192 960 204 960 216C960 228 960 240 960 252C960 264 960 276 960 288C960 300 960 312 960 324C960 336 960 348 960 360C960 372 960 384 960 396C960 408 960 420 960 432C960 444 960 456 960 468C960 480 960 492 960 504C960 516 960 528 960 534L960 540Z" fill="#242735" stroke-linecap="round" stroke-linejoin="miter"></path></svg>