<svg id="visual" viewBox="0 0 960 540" width="960" height="540" xmlns="http://www.w3.org/2000/svg" xmlns:xlink="http://www.w3.org/1999/xlink" version="1.1"><path d="M0 434L10.7 434.8C21.3 435.7 42.7 437.3 64 438.8C85.3 440.3 106.7 441.7 128 442.7C149.3 443.7 170.7 444.3 192 443C213.3 441.7 234.7 438.3 256 438C277.3 437.7 298.7 440.3 320 438.2C341.3 436 362.7 429 384 425.8C405.3 422.7 426.7 423.3 448 427C469.3 430.7 490.7 437.3 512 438.3C533.3 439.3 554.7 434.7 576 436C597.3 437.3 618.7 444.7 640 448C661.3 451.3 682.7 450.7 704 446.8C725.3 443 746.7 436 768 429.8C789.3 423.7 810.7 418.3 832 421.2C853.3 424 874.7 435 896 436.5C917.3 438 938.7 430 949.3 426L960 422L960 541L949.3 541C938.7 541 917.3 541 896 541C874.7 541 853.3 541 832 541C810.7 541 789.3 541 768 541C746.7 541 725.3 541 704 541C682.7 541 661.3 541 640 541C618.7 541 597.3 541 576 541C554.7 541 533.3 541 512 541C490.7 541 469.3 541 448 541C426.7 541 405.3 541 384 541C362.7 541 341.3 541 320 541C298.7 541 277.3 541 256 541C234.7 541 213.3 541 192 541C170.7 541 149.3 541 128 541C106.7 541 85.3 541 64 541C42.7 541 21.3 541 10.7 541L0 541Z" fill="#242735" stroke-linecap="round" stroke-linejoin="miter"></path></svg>